# xmcd
#
# Track frame offsets:
#	150
#	24115
#	39782
#	53800
#	66897
#	82555
#	109822
#	133665
#	152415
#	167795
#	188810
#	206577
#
# Disc length: 2934 seconds
#
# Revision: 1
# Processed by: cddbd v1.5PL3 Copyright (c) Steve Scherf et al.
# Submitted via: audiograbber 1.80
#
DISCID=8a0b740c
DTITLE=Stax Records - The Stax Blues Brothers
DYEAR=1900
DGENRE=
TTITLE0=Albert King - Cold Sweat
TTITLE1=Mighty Joe Hicks - Rock Me Baby
TTITLE2=John Lee Hooker - Slow and Easy
TTITLE3=Jimmy McCracklin - Think
TTITLE4=Johnnie Taylor - Steal Away
TTITLE5=Albert King, Steve Cropper, and Roebuck "Pop" Staples - Tupelo (Parts 1
TTITLE5=and 2)
TTITLE6=Roebuck "Pop" Staples - Tryin' Time
TTITLE7=Little Milton - Little Bluebird
TTITLE8=Jimmy McCracklin - You're the One
TTITLE9=Johnnie Taylor - Doin' My Own Thing
TTITLE10=Albert King - Drownin' on Dry Land
TTITLE11=Little Sonny - Honest I Do
EXTD=
EXTT0=
EXTT1=
EXTT2=
EXTT3=
EXTT4=
EXTT5=
EXTT6=
EXTT7=
EXTT8=
EXTT9=
EXTT10=
EXTT11=
PLAYORDER=
